<svg width="933" height="601" viewBox="0 0 933 601" fill="none" xmlns="http://www.w3.org/2000/svg">
<path d="M226.164 477.06L119.359 433.353L52.752 342.632L44.1896 229.206L95.9661 123.467L194.208 53.7481L312.592 38.7298L419.396 82.4366L486.003 173.157L494.566 286.583L442.789 392.322L344.547 462.042L226.164 477.06Z" fill="#6C3FEA" fill-opacity="0.8"/>
<path d="M559.656 567.807L434.621 527.03L352.647 448.701L335.699 353.809L388.32 267.779L496.409 213.663L631.004 205.963L756.04 246.74L838.014 325.069L854.961 419.961L802.34 505.991L694.251 560.107L559.656 567.807Z" fill="#3EEDF9"/>
<path d="M612.521 382.833L491.592 343.396L412.311 267.639L395.92 175.864L446.812 92.6595L551.351 40.3216L681.525 32.8737L802.454 72.3115L881.735 148.068L898.126 239.843L847.234 323.047L742.695 375.385L612.521 382.833Z" fill="#FDAE38"/>
</svg>
